<svg viewBox="0 0 940 226" xmlns="http://www.w3.org/2000/svg"><g fill="currentcolor" fill-rule="evenodd"><path d="M327.36 18.88s-25.28-4.16-42.4-4.16c-26.56 0-42.4 7.04-42.4 37.6 0 22.4 8.48 30.72 38.56 35.36 11.2 1.76 12.32 2.08 12.32 4.32 0 2.56-1.92 3.68-8.32 3.68-15.68 0-40.16-3.52-40.16-3.52l-1.6 28.32s22.24 5.76 45.12 5.76c27.36 0 42.4-9.44 42.4-36.8 0-25.12-8.96-29.12-39.52-36C281.12 51.2 280 50.4 280 48.16s1.6-2.88 8.16-2.88c15.68 0 38.24 2.4 38.24 2.4l.96-28.8zm52 82.4c32 0 48.64-8.96 48.64-42.72S411.2 16.8 379.36 16.8h-42.08V124h37.12v-22.72h4.96zM374.4 72V46.08h3.36c9.28 0 12.8 2.4 12.8 12.64 0 9.76-3.68 13.28-12.8 13.28h-3.36zm232.16 21.76s-13.6.96-24.96.96c-14.08 0-17.28-3.04-17.28-24.64 0-21.12 3.04-24 17.28-24 11.36 0 24.48 1.6 24.48 1.6l.96-28.64s-20.8-4.32-32.8-4.32c-37.12 0-47.36 13.12-47.36 55.36 0 43.52 10.56 56 45.76 56 17.44 0 34.4-4.16 34.4-4.16l-.48-28.16zm7.52 30.24h80.32V94.4h-43.2v-9.6h33.6V55.52h-33.6V46.4h43.2V16.8h-80.32V124zM281.2 225h2.88v-56h-2.88v26.56h-33.44V169h-2.88v56h2.88v-26.72h33.44V225zm70.88-2c-15.44 0-18.4-8.96-18.4-25.76 0-16.72 3.2-26.24 18.4-26.24 15.04 0 18.4 9.68 18.4 26.24 0 17.6-2.96 25.76-18.4 25.76zm0 2.72c17.2 0 21.44-9.12 21.44-28.48 0-18.4-4.32-28.96-21.44-28.96s-21.44 10.72-21.44 28.96c0 18.56 4.16 28.48 21.44 28.48zm98.16-.72v-2.72h-27.28V169h-2.88v56h30.16zm63.28 0c14.08 0 18.72-14.56 18.72-28.64S527.6 169 513.52 169h-20.8v56h20.8zm15.68-28.64c0 12-3.68 25.92-15.68 25.92H495.6v-50.56h17.92c12 0 15.68 12.64 15.68 24.64zM578.64 225h32.72v-2.72h-29.84v-24.56h25.04V195h-25.04v-23.28h29.84V169h-32.72v56zm100.16-23.2l12.48 23.2h3.28l-12.64-23.6c8.32-1.6 11.6-7.76 11.6-16.4 0-11.2-5.52-16-16.64-16H656.8v56h2.88v-23.2h19.12zm11.68-16.8c0 8.32-3.44 14.08-13.6 14.08h-17.2v-27.36h17.2c9.36 0 13.6 4 13.6 13.28zM440.577 72.583s-13.155 8.732-13.88 13.098L422 113.96l32.37-15.606 3.42 7.898h31.82l3.838-7.898 33.118 15.606-5.104-28.036c-.815-4.473-14.15-13.42-14.15-13.42s-2.02-19.232-3.5-27.37C497.143 8.474 474.28 0 474.28 0S453.28 6.974 444.38 45.914c-2.083 9.114-3.803 26.67-3.803 26.67zM474.5 52c5.8 0 10.5-4.7 10.5-10.5S480.3 31 474.5 31 464 35.7 464 41.5 468.7 52 474.5 52z"/><path d="M939.565 212.158c-143.07-66.113-302.414-103-470.373-103-167.448 0-326.333 36.663-469.066 102.398 148.78-43.027 306.037-66.086 468.68-66.086 163.4 0 321.365 23.275 470.76 66.688z"/></g></svg>