<?xml version="1.0" encoding="UTF-8" standalone="no"?>
<svg width="940px" height="212px" viewBox="0 0 940 212" version="1.1" xmlns="http://www.w3.org/2000/svg" xmlns:xlink="http://www.w3.org/1999/xlink" xmlns:sketch="http://www.bohemiancoding.com/sketch/ns">
    <!-- Generator: Sketch 3.4.4 (17249) - http://www.bohemiancoding.com/sketch -->
    <title>Logo - White</title>
    <desc>Created with Sketch.</desc>
    <defs></defs>
    <g id="Logos" stroke="none" stroke-width="1" fill="none" fill-rule="evenodd" sketch:type="MSPage">
        <g id="Logo---White" sketch:type="MSLayerGroup" fill="#FFFFFF">
            <path d="M327.36,4.88 C327.36,4.88 302.08,0.72 284.96,0.72 C258.4,0.72 242.56,7.76 242.56,38.32 C242.56,60.72 251.04,69.04 281.12,73.68 C292.32,75.44 293.44,75.76 293.44,78 C293.44,80.56 291.52,81.68 285.12,81.68 C269.44,81.68 244.96,78.16 244.96,78.16 L243.36,106.48 C243.36,106.48 265.6,112.24 288.48,112.24 C315.84,112.24 330.88,102.8 330.88,75.44 C330.88,50.32 321.92,46.32 291.36,39.44 C281.12,37.2 280,36.4 280,34.16 C280,31.92 281.6,31.28 288.16,31.28 C303.84,31.28 326.4,33.68 326.4,33.68 L327.36,4.88 Z M379.36,87.28 C411.36,87.28 428,78.32 428,44.56 C428,10.8 411.2,2.8 379.36,2.8 L337.28,2.8 L337.28,110 L374.4,110 L374.4,87.28 L379.36,87.28 Z M374.4,58 L374.4,32.08 L377.76,32.08 C387.04,32.08 390.56,34.48 390.56,44.72 C390.56,54.48 386.88,58 377.76,58 L374.4,58 Z M423.36,110 L459.84,110 L464.224609,85.2480438 L484.999999,85.2480438 L489.92,110 L527.36,110 L503.2,2.8 L447.04,2.8 L423.36,110 Z M473.28,31.92 L477.28,31.92 L482.04,66.36 L468.2,66.36 L473.28,31.92 Z M606.56,79.76 C606.56,79.76 592.96,80.72 581.6,80.72 C567.52,80.72 564.32,77.68 564.32,56.08 C564.32,34.96 567.36,32.08 581.6,32.08 C592.96,32.08 606.08,33.68 606.08,33.68 L607.04,5.04 C607.04,5.04 586.24,0.72 574.24,0.72 C537.12,0.72 526.88,13.84 526.88,56.08 C526.88,99.6 537.44,112.08 572.64,112.08 C590.08,112.08 607.04,107.92 607.04,107.92 L606.56,79.76 Z M614.08,110 L694.4,110 L694.4,80.4 L651.2,80.4 L651.2,70.8 L684.8,70.8 L684.8,41.52 L651.2,41.52 L651.2,32.4 L694.4,32.4 L694.4,2.8 L614.08,2.8 L614.08,110 Z" id="SPACE-Copy" sketch:type="MSShapeGroup"></path>
            <path d="M281.2,211 L284.08,211 L284.08,155 L281.2,155 L281.2,181.56 L247.76,181.56 L247.76,155 L244.88,155 L244.88,211 L247.76,211 L247.76,184.28 L281.2,184.28 L281.2,211 Z M352.08,209 C336.64,209 333.68,200.04 333.68,183.24 C333.68,166.52 336.88,157 352.08,157 C367.12,157 370.48,166.68 370.48,183.24 C370.48,200.84 367.52,209 352.08,209 L352.08,209 Z M352.08,211.72 C369.28,211.72 373.52,202.6 373.52,183.24 C373.52,164.84 369.2,154.28 352.08,154.28 C334.96,154.28 330.64,165 330.64,183.24 C330.64,201.8 334.8,211.72 352.08,211.72 L352.08,211.72 Z M450.24,211 L450.24,208.28 L422.96,208.28 L422.96,155 L420.08,155 L420.08,211 L450.24,211 Z M513.52,211 C527.6,211 532.24,196.44 532.24,182.36 C532.24,168.28 527.6,155 513.52,155 L492.72,155 L492.72,211 L513.52,211 Z M529.2,182.36 C529.2,194.36 525.52,208.28 513.52,208.28 L495.6,208.28 L495.6,157.72 L513.52,157.72 C525.52,157.72 529.2,170.36 529.2,182.36 L529.2,182.36 Z M578.64,211 L611.36,211 L611.36,208.28 L581.52,208.28 L581.52,183.72 L606.56,183.72 L606.56,181 L581.52,181 L581.52,157.72 L611.36,157.72 L611.36,155 L578.64,155 L578.64,211 Z M678.8,187.8 L691.28,211 L694.56,211 L681.92,187.4 C690.24,185.8 693.52,179.64 693.52,171 C693.52,159.8 688,155 676.88,155 L656.8,155 L656.8,211 L659.68,211 L659.68,187.8 L678.8,187.8 Z M690.48,171 C690.48,179.32 687.04,185.08 676.88,185.08 L659.68,185.08 L659.68,157.72 L676.88,157.72 C686.24,157.72 690.48,161.72 690.48,171 L690.48,171 Z" id="HOLDER-Copy" sketch:type="MSShapeGroup"></path>
            <path d="M939.564726,198.158417 C796.495072,132.044727 637.151305,95.1584507 469.192288,95.1584507 C301.744355,95.1584507 142.859323,131.820584 0.126349047,197.555693 C148.906654,154.529132 306.163497,131.470426 468.80599,131.470426 C632.206288,131.470426 790.170633,154.744509 939.564798,198.158451 Z" id="Oval-1" sketch:type="MSShapeGroup"></path>
        </g>
    </g>
</svg>